# xmcd
#
# Track frame offsets:
#	150
#	26105
#	48401
#	64785
#	87874
#	109018
#	132370
#	157226
#
# Disc length: 2406 seconds
#
# Revision: 0
# Processed by: cddbd v1.5.2PL0 Copyright (c) Steve Scherf et al.
# Submitted via: EZCDAudioConverter 8.3.3.1
#
DISCID=6b096408
DTITLE=Pandera - We've Got The Power Album '99
DYEAR=1999
DGENRE=
TTITLE0=Summer Feeling (extended mix)
TTITLE1=We've Got the Power
TTITLE2=I Love You Baby (Papa Don)
TTITLE3=Diamond Chord
TTITLE4=In My Dreams (extended mix)
TTITLE5=Fifth Colour Man (Justice mix)
TTITLE6=Come to Me
TTITLE7=Rastafari (Pan mix)
EXTD=
EXTT0=
EXTT1=
EXTT2=
EXTT3=
EXTT4=
EXTT5=
EXTT6=
EXTT7=
PLAYORDER=
